<?xml version="1.0" encoding="UTF-8"?>
<svg version="1.1" xmlns="http://www.w3.org/2000/svg" width="172" height="157">
<path d="M0 0 C-1.08248691 1.70886979 -2.16603294 3.41706871 -3.25 5.125 C-3.85328125 6.07632812 -4.4565625 7.02765625 -5.078125 8.0078125 C-7.01770627 11.02756709 -9.00918314 14.01377471 -11 17 C-18.26 17.33 -25.52 17.66 -33 18 C-33 39.45 -33 60.9 -33 83 C-21.85531784 68.72691306 -21.85531784 68.72691306 -12 53 C-11.34 53 -10.68 53 -10 53 C-9.773125 52.319375 -9.54625 51.63875 -9.3125 50.9375 C-7.65496936 47.22778856 -5.43504514 44.23499977 -3 41 C-2.51740723 40.3493457 -2.03481445 39.69869141 -1.53759766 39.02832031 C0.91269257 35.73731467 3.3973303 32.47481741 5.9140625 29.234375 C6.59855469 28.35265625 6.59855469 28.35265625 7.296875 27.453125 C8.55942181 25.83409439 9.83027142 24.22154855 11.1015625 22.609375 C13.13999685 20.084032 13.13999685 20.084032 14 17 C14.66 17 15.32 17 16 17 C16.25519913 16.47758224 16.51039825 15.95516449 16.77333069 15.41691589 C17.17813156 14.61933365 17.58293243 13.8217514 18 13 C18.79324928 11.42107719 18.79324928 11.42107719 19.6025238 9.81025696 C22.42231145 4.74726132 24.79603644 0.72705462 30.47512817 -1.14639282 C34.70062518 -1.50511096 38.74497751 -1.46740047 42.97265625 -1.26953125 C44.50671041 -1.24524298 46.04086636 -1.22675756 47.57505798 -1.21379089 C51.58752514 -1.16446245 55.59374129 -1.03709833 59.60375977 -0.89263916 C63.70568248 -0.75894279 67.80862974 -0.70013254 71.91210938 -0.63476562 C79.94425587 -0.49589866 87.97134775 -0.27446297 96 0 C94.06836197 4.95656407 91.51603142 8.95211348 88.5 13.3125 C88.00113281 14.05306641 87.50226563 14.79363281 86.98828125 15.55664062 C86.50746094 16.25595703 86.02664062 16.95527344 85.53125 17.67578125 C85.09361328 18.31427002 84.65597656 18.95275879 84.20507812 19.6105957 C83.60856445 20.29835083 83.60856445 20.29835083 83 21 C82.34 21 81.68 21 81 21 C80.690625 21.78375 80.38125 22.5675 80.0625 23.375 C79 26 79 26 78 28 C77.34 28 76.68 28 76 28 C75.5359375 29.175625 75.5359375 29.175625 75.0625 30.375 C74 33 74 33 73 35 C72.34 35 71.68 35 71 35 C70.690625 35.78375 70.38125 36.5675 70.0625 37.375 C69 40 69 40 68 42 C67.34 42 66.68 42 66 42 C65.63648438 43.05960938 65.63648438 43.05960938 65.265625 44.140625 C63.80999575 47.42926886 61.95707504 49.9123321 59.75 52.75 C55.95081789 57.70919086 52.38153653 62.74867268 49 68 C49.45890625 68.49628906 49.9178125 68.99257812 50.390625 69.50390625 C51.00421875 70.18324219 51.6178125 70.86257812 52.25 71.5625 C52.85328125 72.22378906 53.4565625 72.88507813 54.078125 73.56640625 C55.98337673 75.97895062 57.42662888 78.48402625 58.91113281 81.16918945 C60.74947484 84.26015961 63.00219112 87.01254039 65.25 89.8125 C70 95.72998596 70 95.72998596 70 98 C70.66 98 71.32 98 72 98 C73.19542478 99.68125012 74.30712843 101.42248083 75.375 103.1875 C77.70915214 107.02805429 80.17171217 110.51089726 83 114 C84.71677903 116.33344216 86.38964957 118.6974356 88.0625 121.0625 C88.92794362 122.28286551 89.79381792 123.50292573 90.66015625 124.72265625 C91.06250488 125.29129395 91.46485352 125.85993164 91.87939453 126.44580078 C92.82447478 127.75655915 93.81203791 129.03653219 94.80859375 130.30859375 C96 132 96 132 96 134 C87.22094735 134.2699241 78.44179956 134.50689751 69.66076374 134.70202446 C65.5831762 134.79366582 61.50652744 134.89656999 57.42993164 135.02539062 C53.4945244 135.14933233 49.55942147 135.24345656 45.62276268 135.31708145 C44.12222229 135.35035729 42.62187892 135.39431126 41.12197304 135.44918442 C29.35045437 135.86955585 29.35045437 135.86955585 25.99613953 133.7097168 C24.63867188 132.10498047 24.63867188 132.10498047 23 129 C22.47792969 128.32453125 21.95585938 127.6490625 21.41796875 126.953125 C18 122.22222222 18 122.22222222 18 120 C17.34 120 16.68 120 16 120 C13 115.61538462 13 115.61538462 13 113 C12.34 113 11.68 113 11 113 C9.5368217 111.02559073 8.19286936 109.06761129 6.875 107 C6.50246094 106.42765625 6.12992188 105.8553125 5.74609375 105.265625 C4.82449592 103.84778218 3.91144179 102.42439275 3 101 C6.28157862 95.82390176 9.45924219 91.14010271 14 87 C18 91.75 18 91.75 18 94 C18.66 94 19.32 94 20 94 C20.54398437 94.99257812 21.08796875 95.98515625 21.6484375 97.0078125 C24.03142537 101.17541683 26.77405307 105.01783651 29.625 108.875 C30.11484375 109.55046875 30.6046875 110.2259375 31.109375 110.921875 C33.56944616 114.4934899 33.56944616 114.4934899 37 117 C38.9593604 117.08510205 40.92162794 117.10717656 42.8828125 117.09765625 C44.04941406 117.09443359 45.21601562 117.09121094 46.41796875 117.08789062 C48.25294922 117.07532227 48.25294922 117.07532227 50.125 117.0625 C51.97158203 117.05573242 51.97158203 117.05573242 53.85546875 117.04882812 C56.90369392 117.0370133 59.95182314 117.02054028 63 117 C59.71124336 111.99852186 56.38866993 107.06915821 52.75 102.3125 C49.26528871 97.6998583 45.8226283 93.06130967 42.4375 88.375 C41.99567383 87.77083252 41.55384766 87.16666504 41.09863281 86.54418945 C38 82.23211034 38 82.23211034 38 80 C37.34 80 36.68 80 36 80 C34.4921875 78.1015625 34.4921875 78.1015625 32.875 75.625 C32.33617188 74.81289062 31.79734375 74.00078125 31.2421875 73.1640625 C30 71 30 71 30 69 C29.34 69 28.68 69 28 69 C28.61308385 65.74920878 29.7177733 63.71617557 31.703125 61.0859375 C32.26507568 60.33368896 32.82702637 59.58144043 33.40600586 58.80639648 C34.01452393 58.00403564 34.62304199 57.2016748 35.25 56.375 C36.52812215 54.66594643 37.80544662 52.95629607 39.08203125 51.24609375 C40.05970459 49.94067627 40.05970459 49.94067627 41.05712891 48.60888672 C44.05714814 44.58046179 47.00060733 40.51206863 49.9375 36.4375 C50.4437793 35.73737793 50.95005859 35.03725586 51.47167969 34.31591797 C55.36812341 28.91466717 59.19143341 23.46348365 63 18 C58.5838301 17.82588897 54.16853997 17.71920238 49.75 17.625 C48.49574219 17.57472656 47.24148437 17.52445313 45.94921875 17.47265625 C39.75347477 17.0494126 39.75347477 17.0494126 34.31835938 19.36230469 C33.10531194 21.17713884 33.10531194 21.17713884 32 24 C31.34 24 30.68 24 30 24 C29.67 25.32 29.34 26.64 29 28 C28.34 28 27.68 28 27 28 C26.67 29.32 26.34 30.64 26 32 C25.34 32 24.68 32 24 32 C23.773125 32.70125 23.54625 33.4025 23.3125 34.125 C22.16851575 36.63087025 21.19952808 38.08797332 19.4375 40.125 C16.85782237 42.80604196 16.85782237 42.80604196 16 46 C15.34 46 14.68 46 14 46 C13.76796875 46.52078125 13.5359375 47.0415625 13.296875 47.578125 C11.55416827 50.83257733 9.41091058 53.76622745 7.25 56.75 C6.80406494 57.37108643 6.35812988 57.99217285 5.89868164 58.63208008 C3.02249827 62.62622931 0.09257012 66.57294866 -2.94140625 70.44921875 C-4.19818222 72.13841617 -4.19818222 72.13841617 -5 75 C-5.72703125 75.72058594 -6.4540625 76.44117187 -7.203125 77.18359375 C-10.53784105 80.54159692 -13.08076174 84.1705672 -15.75 88.0625 C-20.14128281 94.38916721 -24.64578017 100.58679309 -29.35546875 106.6796875 C-31.15487045 108.98032148 -31.15487045 108.98032148 -32 112 C-32.98011551 113.01949673 -33.98331754 114.01696553 -35 115 C-36.13103576 116.46465186 -37.23569982 117.94986479 -38.3203125 119.44921875 C-38.93777344 120.29677734 -39.55523437 121.14433594 -40.19140625 122.01757812 C-41.48872365 123.80892448 -42.78559314 125.6005953 -44.08203125 127.39257812 C-45.00435547 128.65811523 -45.00435547 128.65811523 -45.9453125 129.94921875 C-46.50750488 130.72612061 -47.06969727 131.50302246 -47.64892578 132.3034668 C-48.09478027 132.86332275 -48.54063477 133.42317871 -49 134 C-49.33 134 -49.66 134 -50 134 C-51.37498917 120.446939 -51.12672121 106.86272527 -51.09765625 93.2578125 C-51.09578818 90.67707344 -51.09436612 88.09633402 -51.09336853 85.51559448 C-51.08996031 79.45283741 -51.08210543 73.39010155 -51.07201904 67.3273524 C-51.06077381 60.41543269 -51.05532643 53.50351201 -51.05032361 46.5915854 C-51.03992004 32.39438045 -51.02237348 18.19719088 -51 4 C-49.59377321 3.33781069 -48.18331675 2.6845995 -46.7711792 2.03511047 C-45.98620434 1.67037786 -45.20122948 1.30564524 -44.3924675 0.92986012 C-40.67200147 -0.51614196 -37.15614572 -0.62143458 -33.203125 -0.64453125 C-32.40646423 -0.66343918 -31.60980347 -0.68234711 -30.78900146 -0.701828 C-29.12203519 -0.73802595 -27.45485287 -0.76530971 -25.78759766 -0.78393555 C-23.24177994 -0.81259253 -20.697599 -0.8677625 -18.15234375 -0.92773438 C-16.52346691 -0.95986088 -14.89456016 -0.99051185 -13.265625 -1.01953125 C-12.13269012 -1.04126152 -12.13269012 -1.04126152 -10.97686768 -1.06343079 C-7.18115982 -1.10177263 -3.68801167 -0.9274505 0 0 Z " fill="#E5E5E5" transform="translate(66,12)"/>
<path d="M0 0 C4.56510713 1.54298493 6.5756237 5.14433456 9.1875 8.9375 C9.63802734 9.57107422 10.08855469 10.20464844 10.55273438 10.85742188 C12.43634265 13.54304626 13.95737099 15.87211298 15 19 C15.66 19 16.32 19 17 19 C18.19542478 20.68125012 19.30712843 22.42248083 20.375 24.1875 C22.70915214 28.02805429 25.17171217 31.51089726 28 35 C29.71677903 37.33344216 31.38964957 39.6974356 33.0625 42.0625 C33.92794362 43.28286551 34.79381792 44.50292573 35.66015625 45.72265625 C36.06250488 46.29129395 36.46485352 46.85993164 36.87939453 47.44580078 C37.82447478 48.75655915 38.81203791 50.03653219 39.80859375 51.30859375 C41 53 41 53 41 55 C32.22094735 55.2699241 23.44179956 55.50689751 14.66076374 55.70202446 C10.5831762 55.79366582 6.50652744 55.89656999 2.42993164 56.02539062 C-1.5054756 56.14933233 -5.44057853 56.24345656 -9.37723732 56.31708145 C-10.87777771 56.35035729 -12.37812108 56.39431126 -13.87802696 56.44918442 C-25.64954563 56.86955585 -25.64954563 56.86955585 -29.00386047 54.7097168 C-30.36132812 53.10498047 -30.36132812 53.10498047 -32 50 C-32.52207031 49.32453125 -33.04414062 48.6490625 -33.58203125 47.953125 C-37 43.22222222 -37 43.22222222 -37 41 C-37.66 41 -38.32 41 -39 41 C-42 36.61538462 -42 36.61538462 -42 34 C-42.66 34 -43.32 34 -44 34 C-45.4631783 32.02559073 -46.80713064 30.06761129 -48.125 28 C-48.49753906 27.42765625 -48.87007813 26.8553125 -49.25390625 26.265625 C-50.17550408 24.84778218 -51.08855821 23.42439275 -52 22 C-50.02 19.03 -48.04 16.06 -46 13 C-45.34 13.66 -44.68 14.32 -44 15 C-45.051875 16.3303125 -45.051875 16.3303125 -46.125 17.6875 C-48.32818039 20.71024094 -48.32818039 20.71024094 -47.4921875 23.20703125 C-45.39702159 27.12861141 -42.73446485 30.50452842 -40 34 C-33.44329897 42.3814433 -33.44329897 42.3814433 -32 47 C-31.34 47 -30.68 47 -30 47 C-29.59005295 47.81139938 -29.1801059 48.62279877 -28.75773621 49.45878601 C-27.23371919 52.27083001 -27.23371919 52.27083001 -24.24751282 52.63923645 C-22.57872322 52.6492292 -22.57872322 52.6492292 -20.8762207 52.65942383 C-19.61513992 52.67906693 -18.35405914 52.69871002 -17.05476379 52.71894836 C-15.67843485 52.7155049 -14.30210718 52.71151977 -12.92578125 52.70703125 C-11.51757161 52.72014552 -10.1093808 52.73544892 -8.70121765 52.75285339 C-4.99724431 52.79274964 -1.29376248 52.80289665 2.41040039 52.80688477 C6.19107009 52.81620774 9.97144995 52.85361582 13.75195312 52.88867188 C21.1679711 52.95329441 28.58369412 52.98649594 36 53 C35.6390625 52.37351563 35.278125 51.74703125 34.90625 51.1015625 C34.21015625 49.87566406 34.21015625 49.87566406 33.5 48.625 C32.80390625 47.40683594 32.80390625 47.40683594 32.09375 46.1640625 C31 44 31 44 31 42 C30.34 42 29.68 42 29 42 C27.20173555 39.74185152 25.5253199 37.48722261 23.875 35.125 C23.40707031 34.47402344 22.93914062 33.82304688 22.45703125 33.15234375 C19 28.26412172 19 28.26412172 19 26 C18.38125 25.71125 17.7625 25.4225 17.125 25.125 C15 24 15 24 13 22 C13 21.34 13 20.68 13 20 C11.55697715 17.25825658 10.13331545 15.13331545 7.9375 12.9375 C5.96315151 10.96315151 5.14969875 9.51496601 4 7 C2.69157812 4.65194059 1.34331057 2.32840499 0 0 Z " fill="#F0F0F0" transform="translate(121,91)"/>
<path d="M0 0 C1.53694541 0.01867301 3.07395073 0.03289738 4.61097717 0.0428772 C8.63871283 0.08089464 12.66278861 0.17895838 16.68908691 0.28991699 C20.8045907 0.39258603 24.92069158 0.43796378 29.03710938 0.48828125 C37.10063014 0.59523477 45.16118684 0.76568324 53.22265625 0.9765625 C51.74335432 4.94135822 49.98618568 7.75244483 47.22265625 10.9765625 C47.22265625 6.9765625 47.22265625 6.9765625 49.22265625 3.9765625 C17.54265625 3.4815625 17.54265625 3.4815625 -14.77734375 2.9765625 C-14.77734375 3.6365625 -14.77734375 4.2965625 -14.77734375 4.9765625 C-15.43734375 4.9765625 -16.09734375 4.9765625 -16.77734375 4.9765625 C-18.03399353 7.88256511 -18.77734375 9.77260834 -18.77734375 12.9765625 C-20.77734375 13.9765625 -22.77734375 14.9765625 -24.77734375 15.9765625 C-19.53703379 2.34794561 -14.25141472 -0.50941878 0 0 Z " fill="#E7E6E6" transform="translate(108.77734375,11.0234375)"/>
<path d="M0 0 C0.99 0 1.98 0 3 0 C2.11090796 4.40883994 -0.29454109 7.4562851 -2.9375 11 C-5.59266019 14.59028733 -8.00750659 17.99714328 -10 22 C-10.44448486 22.43932861 -10.88896973 22.87865723 -11.34692383 23.33129883 C-13.23808304 25.24033342 -14.74534923 27.27201075 -16.3203125 29.44921875 C-16.93777344 30.29677734 -17.55523437 31.14433594 -18.19140625 32.01757812 C-19.48872365 33.80892448 -20.78559314 35.6005953 -22.08203125 37.39257812 C-22.69691406 38.23626953 -23.31179687 39.07996094 -23.9453125 39.94921875 C-24.50750488 40.72612061 -25.06969727 41.50302246 -25.64892578 42.3034668 C-26.09478027 42.86332275 -26.54063477 43.42317871 -27 44 C-27.33 44 -27.66 44 -28 44 C-28.3125 41.8125 -28.3125 41.8125 -28 39 C-25.9375 36.75 -25.9375 36.75 -24.57421875 35.5234375 C-22.59912837 33.61205972 -20.94644762 31.53665903 -19.25 29.375 C-18.36054688 28.24191406 -18.36054688 28.24191406 -17.453125 27.0859375 C-15.83272286 24.96949797 -15.83272286 24.96949797 -15 22 C-13.66666667 20.66666667 -12.33333333 19.33333333 -11 18 C-11 17.34 -11 16.68 -11 16 C-9.33333333 14.33333333 -7.66666667 12.66666667 -6 11 C-3.45485517 7.33688746 -3.45485517 7.33688746 -3 3 C-2.01 3.33 -1.02 3.66 0 4 C0 2.68 0 1.36 0 0 Z " fill="#F2F2F2" transform="translate(44,102)"/>
<path d="M0 0 C-1.98 2.97 -1.98 2.97 -4 6 C-4.66 5.67 -5.32 5.34 -6 5 C-6 4.34 -6 3.68 -6 3 C-18.54 2.67 -31.08 2.34 -44 2 C-41.05300493 -0.94699507 -37.84429067 -0.37500935 -33.88671875 -0.44921875 C-33.08015335 -0.47095657 -32.27358795 -0.4926944 -31.44258118 -0.51509094 C-29.73372493 -0.55904537 -28.0247406 -0.59823667 -26.31567383 -0.63305664 C-23.70806769 -0.68707393 -21.10128438 -0.75733553 -18.49414062 -0.83007812 C-16.83335681 -0.87076146 -15.17254966 -0.91050539 -13.51171875 -0.94921875 C-12.3458448 -0.98036018 -12.3458448 -0.98036018 -11.15641785 -1.01213074 C-7.29399011 -1.08391775 -3.7516425 -0.95920298 0 0 Z " fill="#EAEAEA" transform="translate(66,12)"/>
<path d="M0 0 C22.44 0 44.88 0 68 0 C66.35 2.97 64.7 5.94 63 9 C62.34 8.67 61.68 8.34 61 8 C62 6 63 4 64 2 C32.32 1.505 32.32 1.505 0 1 C0 0.67 0 0.34 0 0 Z " fill="#FDFDFD" transform="translate(94,13)"/>
<path d="M0 0 C0.33 0.99 0.66 1.98 1 3 C-0.28062485 4.7074998 -1.61767557 6.37373596 -3 8 C-3.33 8.99 -3.66 9.98 -4 11 C-4.66 11 -5.32 11 -6 11 C-6.24492188 11.54140625 -6.48984375 12.0828125 -6.7421875 12.640625 C-8.29353788 15.55061143 -10.16714304 18.0974196 -12.125 20.75 C-12.84945312 21.73484375 -13.57390625 22.7196875 -14.3203125 23.734375 C-14.87460938 24.48203125 -15.42890625 25.2296875 -16 26 C-16.33 24.68 -16.66 23.36 -17 22 C-16.01 21.67 -15.02 21.34 -14 21 C-13.87625 20.030625 -13.7525 19.06125 -13.625 18.0625 C-13.41875 17.051875 -13.2125 16.04125 -13 15 C-12.34 14.67 -11.68 14.34 -11 14 C-10.67 13.34 -10.34 12.68 -10 12 C-9.175 11.236875 -8.35 10.47375 -7.5 9.6875 C-4.82266054 6.80936008 -4.69663731 5.68222578 -4 2 C-1.9375 0.6875 -1.9375 0.6875 0 0 Z " fill="#EDEDED" transform="translate(86,47)"/>
<path d="M0 0 C1.70884005 1.62339805 3.37446717 3.29319053 5 5 C5 5.66 5 6.32 5 7 C5.66 7 6.32 7 7 7 C7.53625 7.99 8.0725 8.98 8.625 10 C10.71094645 13.70500236 13.22198309 16.92976161 15.92578125 20.203125 C16.45751953 21.09257813 16.45751953 21.09257813 17 22 C16.67 22.99 16.34 23.98 16 25 C13 21.25 13 21.25 13 19 C12.34 19 11.68 19 11 19 C9.78514615 17.27578573 8.65181296 15.49365116 7.5625 13.6875 C4.77555681 8.93753737 4.77555681 8.93753737 1 5 C0.34 5 -0.32 5 -1 5 C-0.67 3.35 -0.34 1.7 0 0 Z " fill="#F2F2F2" transform="translate(79,99)"/>
<path d="M0 0 C1 3 1 3 0.0625 5.1875 C-0.288125 5.785625 -0.63875 6.38375 -1 7 C-1.66 7 -2.32 7 -3 7 C-3.2475 7.721875 -3.495 8.44375 -3.75 9.1875 C-5.12269592 12.27606582 -6.72353296 14.51011418 -9 17 C-9.66 17 -10.32 17 -11 17 C-11 16.01 -11 15.02 -11 14 C-10.34 14 -9.68 14 -9 14 C-8.74476562 13.44828125 -8.48953125 12.8965625 -8.2265625 12.328125 C-6.80697926 9.63362942 -5.13867746 7.23221272 -3.375 4.75 C-2.74335938 3.85796875 -2.11171875 2.9659375 -1.4609375 2.046875 C-0.73777344 1.03367188 -0.73777344 1.03367188 0 0 Z " fill="#F3F3F3" transform="translate(135,47)"/>
<path d="M0 0 C0.66 0 1.32 0 2 0 C1.34 1.98 0.68 3.96 0 6 C-0.66 6 -1.32 6 -2 6 C-2.33 7.32 -2.66 8.64 -3 10 C-3.66 10 -4.32 10 -5 10 C-5.33 11.32 -5.66 12.64 -6 14 C-6.66 14 -7.32 14 -8 14 C-8 14.66 -8 15.32 -8 16 C-8.66 16 -9.32 16 -10 16 C-8.56007449 11.89771221 -6.55506592 8.69601883 -4 5.1875 C-3.29875 4.21167969 -2.5975 3.23585937 -1.875 2.23046875 C-1.25625 1.49441406 -0.6375 0.75835938 0 0 Z " fill="#EFEFEF" transform="translate(98,30)"/>
<path d="M0 0 C0.66 0.66 1.32 1.32 2 2 C1.34 2 0.68 2 0 2 C-0.33 2.99 -0.66 3.98 -1 5 C-1.66 5 -2.32 5 -3 5 C-3.433125 6.0828125 -3.433125 6.0828125 -3.875 7.1875 C-4.91666667 9.79166667 -5.95833333 12.39583333 -7 15 C-7.66 14.67 -8.32 14.34 -9 14 C-8.66506307 8.6410091 -5.42872819 4.89256144 -2 1 C-1.34 0.67 -0.68 0.34 0 0 Z " fill="#EDEDED" transform="translate(48,76)"/>
<path d="M0 0 C0.99 0 1.98 0 3 0 C3.33 0.99 3.66 1.98 4 3 C2.78515625 4.82421875 2.78515625 4.82421875 1.0625 6.6875 C0.49660156 7.31011719 -0.06929687 7.93273437 -0.65234375 8.57421875 C-1.09707031 9.04472656 -1.54179688 9.51523438 -2 10 C-2.33 9.34 -2.66 8.68 -3 8 C-3.66 7.67 -4.32 7.34 -5 7 C-4.34 6.01 -3.68 5.02 -3 4 C-2.34 4 -1.68 4 -1 4 C-0.67 2.68 -0.34 1.36 0 0 Z " fill="#ECECEC" transform="translate(62,76)"/>
<path d="M0 0 C0.99 0.66 1.98 1.32 3 2 C2.360625 2.763125 1.72125 3.52625 1.0625 4.3125 C-1.14232781 6.88246713 -1.14232781 6.88246713 -2 10 C-2.99 10 -3.98 10 -5 10 C-5.66 11.65 -6.32 13.3 -7 15 C-7.33 14.01 -7.66 13.02 -8 12 C-6.34765625 9.08203125 -6.34765625 9.08203125 -4.0625 5.8125 C-3.67642578 5.25369141 -3.29035156 4.69488281 -2.89257812 4.11914062 C-1.93757247 2.73968802 -0.96995907 1.36897944 0 0 Z " fill="#EDEDED" transform="translate(123,38)"/>
<path d="M0 0 C1 3 1 3 0.07421875 5.04296875 C-0.61220703 6.10451172 -0.61220703 6.10451172 -1.3125 7.1875 C-1.98732422 8.26064453 -1.98732422 8.26064453 -2.67578125 9.35546875 C-3.33126953 10.16951172 -3.33126953 10.16951172 -4 11 C-4.66 11 -5.32 11 -6 11 C-6.33 11.99 -6.66 12.98 -7 14 C-7.66 13.67 -8.32 13.34 -9 13 C-7.99088542 11.27473958 -6.98177083 9.54947917 -5.97265625 7.82421875 C-4.86098753 5.86180445 -4.86098753 5.86180445 -4 3 C-3.34 3 -2.68 3 -2 3 C-1.34 2.01 -0.68 1.02 0 0 Z " fill="#F1F1F1" transform="translate(153,22)"/>
<path d="M0 0 C4.62 0 9.24 0 14 0 C11.525 4.455 11.525 4.455 9 9 C8.34 8.67 7.68 8.34 7 8 C8 6 9 4 10 2 C6.7 1.67 3.4 1.34 0 1 C0 0.67 0 0.34 0 0 Z " fill="#F7F6F7" transform="translate(148,13)"/>
<path d="M0 0 C0.33 0.99 0.66 1.98 1 3 C0.34 3 -0.32 3 -1 3 C-2.25664978 5.90600261 -3 7.79604584 -3 11 C-5 12 -7 13 -9 14 C-7.65070536 10.16336928 -5.92248975 7.34827431 -3.375 4.1875 C-2.42753906 3.00220703 -2.42753906 3.00220703 -1.4609375 1.79296875 C-0.97882813 1.20128906 -0.49671875 0.60960937 0 0 Z " fill="#EFEFEF" transform="translate(93,13)"/>
<path d="M0 0 C2.33333333 2.33333333 4.66666667 4.66666667 7 7 C6.67 7.99 6.34 8.98 6 10 C2.19118361 8.55527654 0.70257114 6.67396929 -1 3 C-0.67 2.01 -0.34 1.02 0 0 Z " fill="#EDEDED" transform="translate(96,78)"/>
<path d="M0 0 C0.99 0.33 1.98 0.66 3 1 C1.88266271 2.50571657 0.75589965 4.00444292 -0.375 5.5 C-1.00148438 6.3353125 -1.62796875 7.170625 -2.2734375 8.03125 C-2.84320313 8.6809375 -3.41296875 9.330625 -4 10 C-4.66 10 -5.32 10 -6 10 C-4.66666667 7.33333333 -3.33333333 4.66666667 -2 2 C-1.34 2 -0.68 2 0 2 C0 1.34 0 0.68 0 0 Z " fill="#EDEDED" transform="translate(59,18)"/>
<path d="M0 0 C3.34998521 1.11666174 3.79340222 1.74694925 5.6875 4.5625 C6.12449219 5.20316406 6.56148438 5.84382813 7.01171875 6.50390625 C7.33785156 6.99761719 7.66398437 7.49132812 8 8 C7.01 8.495 7.01 8.495 6 9 C3 8 3 8 2.05078125 6.15234375 C1.80714844 5.42144531 1.56351562 4.69054687 1.3125 3.9375 C1.06113281 3.20402344 0.80976562 2.47054687 0.55078125 1.71484375 C0.36902344 1.14894531 0.18726562 0.58304687 0 0 Z " fill="#F0F0F0" transform="translate(114,81)"/>
<path d="M0 0 C0.33 0.66 0.66 1.32 1 2 C1.66 2 2.32 2 3 2 C4.04449911 5.13349732 3.93423645 5.98968256 3 9 C1.62437146 7.71034824 0.29233607 6.37310707 -1 5 C-1 4.34 -1 3.68 -1 3 C-1.33 2.34 -1.66 1.68 -2 1 C-1.34 0.67 -0.68 0.34 0 0 Z " fill="#ECECEC" transform="translate(135,108)"/>
<path d="M0 0 C0.66 0.99 1.32 1.98 2 3 C1.34 3 0.68 3 0 3 C-0.28875 3.78375 -0.5775 4.5675 -0.875 5.375 C-2 8 -2 8 -4 10 C-4.8125 7.8125 -4.8125 7.8125 -5 5 C-2.5625 2.1875 -2.5625 2.1875 0 0 Z " fill="#F1F1F1" transform="translate(142,37)"/>
<path d="M0 0 C1.70884005 1.62339805 3.37446717 3.29319053 5 5 C5 5.66 5 6.32 5 7 C3.02 6.34 1.04 5.68 -1 5 C-0.67 3.35 -0.34 1.7 0 0 Z " fill="#EEEEEE" transform="translate(79,99)"/>
<path d="M0 0 C0.33 1.32 0.66 2.64 1 4 C-0.9375 6.25 -0.9375 6.25 -3 8 C-3.66 7.67 -4.32 7.34 -5 7 C-3.35 4.69 -1.7 2.38 0 0 Z " fill="#F3F3F3" transform="translate(122,65)"/>
<path d="M0 0 C0.99 0 1.98 0 3 0 C3 0.66 3 1.32 3 2 C1.33333333 3.66666667 -0.33333333 5.33333333 -2 7 C-2.33 6.34 -2.66 5.68 -3 5 C-1.75 2.375 -1.75 2.375 0 0 Z " fill="#F1F1F1" transform="translate(71,42)"/>
</svg>
